# xmcd
#
# Track frame offsets: 
#        150
#        12362
#        29985
#        40415
#        54597
#        58605
#        73147
#        94380
#        106660
#        117955
#        127307
#        137697
#        147000
#        163032
#        180342
#        187930
#        195885
#
# Disc length: 2795 seconds
#
# Revision: 0
# Processed by: cddbd v1.5.2PL0 Copyright (c) Steve Scherf et al.
# Submitted via: ExactAudioCopy v0.95b4
#
DISCID=f40ae911
DTITLE=The Beatles  - The Beatles CD 1 (MFSL Ebbetts)  
DYEAR=1900
DGENRE=
TTITLE0=Back in the USSR
TTITLE1=Dear Prudence
TTITLE2=Glass Onion
TTITLE3=Ob-La-Di, Ob-La-Da
TTITLE4=Wild Honey Pie
TTITLE5=The Continuing Story of Bungalow Bill
TTITLE6=While My Guitar Gently Weeps
TTITLE7=Happiness is a Warm Gun
TTITLE8=Martha My Dear
TTITLE9=I'm So Tired
TTITLE10=Blackbird
TTITLE11=Piggies
TTITLE12=Rocky Raccoon
TTITLE13=Don't Pass Me By
TTITLE14=Why Don't We Do it in the Road
TTITLE15=I Will
TTITLE16=Julia
EXTD=
EXTT0=
EXTT1=
EXTT2=
EXTT3=
EXTT4=
EXTT5=
EXTT6=
EXTT7=
EXTT8=
EXTT9=
EXTT10=
EXTT11=
EXTT12=
EXTT13=
EXTT14=
EXTT15=
EXTT16=
PLAYORDER=
